<svg xmlns="http://www.w3.org/2000/svg" viewBox="0 0 407.23 303.64">
  <defs>
    <style>
      .cls-1, .cls-4 {
        fill: #3da35d;
      }

      .cls-2, .cls-3 {
        fill: #e8fccf;
      }

      .cls-3 {
        font-size: 72px;
        font-family: HelveticaNeue-Bold, Helvetica Neue;
        font-weight: 700;
      }

      .cls-4 {
        font-size: 215.49px;
        font-family: HelveticaNeue, Helvetica Neue;
      }
    </style>
  </defs>
  <g id="Calque_2" data-name="Calque 2">
    <g id="Calque_1-2" data-name="Calque 1">
      <path id="cible_sol" data-name="cible sol" class="cls-1" d="M350.73,276.66c-31.2,0-56.5,6-56.5,13.49s25.3,13.49,56.5,13.49,56.5-6,56.5-13.49S381.94,276.66,350.73,276.66Zm0,20.24c-21,0-37.94-3.3-37.94-7.37s17-7.36,37.94-7.36,37.95,3.3,37.95,7.36S371.69,296.9,350.73,296.9Z"/>
      <g id="localisation">
        <path class="cls-1" d="M400.49,149.34a65.88,65.88,0,0,0,4.64-24.66c1.05-70.85-110.24-70.85-109.21,0-.15,10.47,6.19,26.76,6.19,26.76l48.94,122.29Z"/>
      </g>
      <g id="croix">
        <g>
          <rect class="cls-2" x="311.88" y="114.6" width="77.29" height="22.68"/>
          <rect class="cls-2" x="339.61" y="86.88" width="22.68" height="77.29"/>
        </g>
      </g>
      <text class="cls-3" transform="translate(4.15 257.77)">PHARMA</text>
      <text class="cls-4" transform="translate(0 184.67)">Ge</text>
    </g>
  </g>
</svg>
